<?xml version="1.0" encoding="UTF-8"?>
<svg width="11px" height="13px" viewBox="0 0 11 13" version="1.1" xmlns="http://www.w3.org/2000/svg" xmlns:xlink="http://www.w3.org/1999/xlink">
    <!-- Generator: Sketch 52.5 (67469) - http://www.bohemiancoding.com/sketch -->
    <title>trash-alt</title>
    <desc>Created with Sketch.</desc>
    <g id="Page-1" stroke="none" stroke-width="1" fill="none" fill-rule="evenodd">
        <g id="2-2-chatbot" transform="translate(-335.000000, -159.000000)" fill="#617590">
            <path d="M339.499989,163.906265 L339.499989,168.968752 C339.499989,169.046877 339.472645,169.113283 339.417958,169.167971 C339.363271,169.222658 339.296865,169.250002 339.21874,169.250002 L338.656241,169.250002 C338.578117,169.250002 338.51171,169.222658 338.457023,169.167971 C338.402336,169.113283 338.374992,169.046877 338.374992,168.968752 L338.374992,163.906265 C338.374992,163.82814 338.402336,163.761734 338.457023,163.707046 C338.51171,163.652359 338.578117,163.625015 338.656241,163.625015 L339.21874,163.625015 C339.296865,163.625015 339.363271,163.652359 339.417958,163.707046 C339.472645,163.761734 339.499989,163.82814 339.499989,163.906265 Z M341.281235,163.625015 L341.843734,163.625015 C341.921858,163.625015 341.988265,163.652359 342.042952,163.707046 C342.097639,163.761734 342.124983,163.82814 342.124983,163.906265 L342.124983,168.968752 C342.124983,169.046877 342.097639,169.113283 342.042952,169.167971 C341.988265,169.222658 341.921858,169.250002 341.843734,169.250002 L341.281235,169.250002 C341.20311,169.250002 341.136704,169.222658 341.082017,169.167971 C341.027329,169.113283 340.999986,169.046877 340.999986,168.968752 L340.999986,163.906265 C340.999986,163.82814 341.027329,163.761734 341.082017,163.707046 C341.136704,163.652359 341.20311,163.625015 341.281235,163.625015 Z M344.937476,161.375021 C345.093726,161.375021 345.226538,161.429708 345.335913,161.539083 C345.445288,161.648458 345.499975,161.781269 345.499975,161.937519 L345.499975,162.218769 C345.499975,162.296893 345.472631,162.3633 345.417944,162.417987 C345.363257,162.472674 345.29685,162.500018 345.218726,162.500018 L344.749977,162.500018 L344.749977,170.374999 C344.749977,170.687498 344.640602,170.953123 344.421853,171.171872 C344.203103,171.390622 343.937479,171.499996 343.624979,171.499996 L336.874996,171.499996 C336.562496,171.499996 336.296872,171.390622 336.078122,171.171872 C335.859373,170.953123 335.749998,170.687498 335.749998,170.374999 L335.749998,162.500018 L335.281249,162.500018 C335.203125,162.500018 335.136718,162.472674 335.082031,162.417987 C335.027344,162.3633 335,162.296893 335,162.218769 L335,161.937519 C335,161.781269 335.054687,161.648458 335.164062,161.539083 C335.273437,161.429708 335.406249,161.375021 335.562499,161.375021 L337.29687,161.375021 L338.093743,160.039086 C338.203117,159.867212 338.343742,159.734399 338.515617,159.64065 C338.687491,159.5469 338.874991,159.500025 339.078115,159.500025 L341.42186,159.500025 C341.624984,159.500025 341.812484,159.5469 341.984358,159.64065 C342.156233,159.734399 342.296857,159.867212 342.406232,160.039086 L343.203105,161.375021 L344.937476,161.375021 Z M338.609366,161.375021 L341.890609,161.375021 L341.468735,160.695335 C341.437485,160.64846 341.398422,160.625022 341.351547,160.625022 L339.148428,160.625022 C339.101553,160.625022 339.06249,160.64846 339.03124,160.695335 L338.609366,161.375021 Z M343.624979,162.500018 L336.874996,162.500018 L336.874996,170.234374 C336.874996,170.265624 336.890621,170.296874 336.92187,170.328124 C336.95312,170.359374 336.98437,170.374999 337.01562,170.374999 L343.484355,170.374999 C343.515605,170.374999 343.546855,170.359374 343.578105,170.328124 C343.609354,170.296874 343.624979,170.265624 343.624979,170.234374 L343.624979,162.500018 Z" id="trash-alt"></path>
        </g>
    </g>
</svg>