<?xml version="1.0" encoding="UTF-8"?>
<svg width="114px" height="20px" viewBox="0 0 114 20" version="1.1" xmlns="http://www.w3.org/2000/svg" xmlns:xlink="http://www.w3.org/1999/xlink">
    <!-- Generator: Sketch 52.3 (67297) - http://www.bohemiancoding.com/sketch -->
    <title>Combined Shape</title>
    <desc>Created with Sketch.</desc>
    <g id="Page-1" stroke="none" stroke-width="1" fill="none" fill-rule="evenodd">
        <g id="Desktop-HD" transform="translate(-1151.000000, -434.000000)" fill="#FFFFFF">
            <g id="Group-22" transform="translate(1008.000000, 419.000000)">
                <path d="M164,15 L173.460113,15 L173.460113,18.3756774 L168.159766,18.3756774 L168.159766,21.0851026 L173.124648,21.0851026 L173.124648,24.3275295 L168.159766,24.3275295 L168.159766,27.4811229 L173.661392,27.4811229 L173.661392,30.8568002 L164,30.8568002 L164,15 Z M179.386661,28.480501 C179.83395,28.480501 180.154503,28.317641 180.348328,27.9919161 C180.542153,27.6661913 180.639064,27.1702085 180.639064,26.5039531 L180.639064,25.0604069 L180.594335,25.0604069 C180.475058,25.2232693 180.292418,25.3232061 180.046409,25.3602203 C179.8004,25.3972345 179.528304,25.4823659 179.230111,25.6156169 C178.917009,25.7636737 178.700822,25.959846 178.581545,26.2041396 C178.462268,26.4484333 178.402631,26.7704519 178.402631,27.1702052 C178.402631,27.5699585 178.492087,27.8882757 178.671003,28.1251666 C178.849918,28.3620574 179.088469,28.480501 179.386661,28.480501 Z M180.885072,30.8568002 C180.810524,30.6495207 180.758341,30.4348417 180.728521,30.2127565 C180.698702,29.9906714 180.668883,29.7537841 180.639064,29.5020876 L180.594335,29.5020876 C180.370691,30.0350919 180.016593,30.4348392 179.53203,30.7013414 C179.047467,30.9678436 178.492091,31.1010927 177.865887,31.1010927 C177.254592,31.1010927 176.73649,31.023364 176.311566,30.8679044 C175.886641,30.7124448 175.539997,30.4792589 175.271624,30.1683397 C175.003251,29.8574205 174.809428,29.4872841 174.690151,29.0579195 C174.570874,28.6285549 174.511237,28.1547804 174.511237,27.6365817 C174.511237,27.073966 174.567147,26.585386 174.678969,26.170827 C174.790791,25.7562681 174.973432,25.3972358 175.226895,25.0937195 C175.480359,24.7902031 175.823275,24.5311076 176.255655,24.3164253 C176.688034,24.101743 177.224773,23.9203762 177.865887,23.7723194 L179.453754,23.3947766 C179.886134,23.2911368 180.191777,23.1393809 180.370692,22.9395043 C180.549608,22.7396277 180.639064,22.4546227 180.639064,22.0844808 C180.639064,21.3441969 180.296148,20.9740606 179.610305,20.9740606 C179.222654,20.9740606 178.939376,21.0814001 178.76046,21.2960824 C178.581545,21.5107647 178.484633,21.9364216 178.469724,22.5730656 L174.980888,22.5730656 C174.980888,21.6995307 175.137437,20.999973 175.450539,20.4743715 C175.763641,19.94877 176.151286,19.54162 176.613484,19.2529093 C177.075683,18.9641986 177.575148,18.7717277 178.111894,18.6754908 C178.648641,18.5792539 179.148106,18.5311362 179.610305,18.5311362 C180.311057,18.5311362 180.955889,18.5866566 181.54482,18.6976992 C182.13375,18.8087418 182.64067,19.0086154 183.065594,19.2973261 C183.490519,19.5860368 183.818526,19.9783813 184.049625,20.4743715 C184.280724,20.9703617 184.396272,21.6106976 184.396272,22.3953984 L184.396272,28.258417 C184.396272,28.8210327 184.418636,29.3170154 184.463365,29.74638 C184.508094,30.1757446 184.61246,30.545881 184.776466,30.8568002 L180.885072,30.8568002 Z M189.294061,27.1257884 C189.294061,27.3626792 189.316425,27.584761 189.361154,27.7920405 C189.405883,27.99932 189.48043,28.1695827 189.584798,28.3028338 C189.778623,28.5841416 190.061901,28.7247935 190.434642,28.7247935 C190.747744,28.7247935 191.019841,28.6359607 191.25094,28.4582926 C191.48204,28.2806245 191.597588,28.0289318 191.597588,27.7032069 C191.597588,27.3478707 191.452221,27.0739698 191.161483,26.881496 C190.870745,26.6890222 190.509192,26.5187594 190.076813,26.3707027 C189.644434,26.2226459 189.178515,26.0671886 188.679042,25.9043262 C188.179569,25.7414638 187.71365,25.5193819 187.281271,25.2380741 C186.848892,24.9567662 186.487339,24.5829285 186.196601,24.1165497 C185.905863,23.6501709 185.760497,23.0394459 185.760497,22.2843564 C185.760497,21.751352 185.857408,21.2590707 186.051233,20.8074976 C186.245058,20.3559244 186.539519,19.9598785 186.934624,19.619348 C187.329729,19.2788174 187.829194,19.0123192 188.433034,18.8198454 C189.036874,18.6273716 189.748799,18.5311362 190.568828,18.5311362 C193.595483,18.5311362 195.108788,19.7895998 195.108788,22.3065648 L191.619952,22.3065648 C191.619952,21.7883661 191.526768,21.4367366 191.340398,21.2516656 C191.154027,21.0665947 190.889385,20.9740606 190.546464,20.9740606 C190.248271,20.9740606 190.002266,21.0554906 189.808441,21.218353 C189.614616,21.3812155 189.517705,21.6107 189.517705,21.9068135 C189.517705,22.2473441 189.663071,22.5027382 189.953809,22.6730035 C190.244547,22.8432687 190.6061,22.9950247 191.038479,23.1282757 C191.470858,23.2615268 191.936777,23.4021786 192.43625,23.5502354 C192.935723,23.6982922 193.401642,23.9092699 193.834021,24.1831749 C194.2664,24.4570799 194.627953,24.8272163 194.918691,25.2935951 C195.209429,25.7599739 195.354796,26.3781016 195.354796,27.1479968 C195.354796,27.7402239 195.242975,28.2806229 195.019331,28.7692103 C194.795686,29.2577976 194.478861,29.679753 194.068846,30.0350893 C193.658832,30.3904255 193.151912,30.6569237 192.548072,30.8345918 C191.944232,31.0122599 191.262126,31.1010927 190.501735,31.1010927 C188.816947,31.1010927 187.605558,30.7679699 186.867531,30.1017145 C186.129504,29.435459 185.760497,28.4434936 185.760497,27.1257884 L189.294061,27.1257884 Z M196.853206,31.8117616 C197.002302,31.8413729 197.151396,31.8635811 197.300493,31.8783868 C197.449589,31.8931925 197.598683,31.9005952 197.747779,31.9005952 C198.001243,31.9005952 198.213702,31.8635815 198.385163,31.7895532 C198.556624,31.7155248 198.694536,31.6303934 198.798903,31.5341565 C198.90327,31.4379196 198.977817,31.3379828 199.022546,31.2343431 C199.067275,31.1307033 199.089639,31.0492733 199.089639,30.9900506 C199.089639,30.9012166 199.071003,30.7827729 199.033728,30.6347162 C198.996454,30.4866594 198.955453,30.3312021 198.910725,30.1683397 L195.734989,18.8420538 L199.872391,18.8420538 L201.102429,26.9481212 L201.147158,26.9481212 L202.310103,18.8420538 L206.335683,18.8420538 L203.092855,31.1899263 C202.913939,31.8857931 202.708935,32.4595044 202.477836,32.9110776 C202.246737,33.3626507 201.970913,33.721683 201.650355,33.9881851 C201.329798,34.2546873 200.960791,34.4397555 200.543321,34.5433952 C200.125851,34.647035 199.64875,34.698854 199.112004,34.698854 C198.679624,34.698854 198.280798,34.6914513 197.915512,34.6766456 C197.550226,34.66184 197.196127,34.6396318 196.853206,34.6100204 L196.853206,31.8117616 Z M211.836415,16.7073821 L214.158727,16.7073821 L217.012416,30.8568002 L215.123077,30.8568002 L214.316172,26.5572533 L209.061448,26.5572533 L207.113068,30.8568002 L205.26309,30.8568002 L211.836415,16.7073821 Z M214.080005,25.111042 L212.820445,18.2513103 L212.800765,18.2513103 L209.671547,25.111042 L214.080005,25.111042 Z M226.536977,30.8568002 L224.982209,30.8568002 L225.080612,29.7037399 L225.080612,29.6841965 C224.135943,30.4659323 222.935425,31.091321 221.656185,31.091321 C219.668443,31.091321 218.349842,29.9187172 218.349842,27.2608155 C218.349842,22.4140535 220.928003,20.6160611 223.348718,20.6160611 C224.529555,20.6160611 225.434863,21.0851026 226.084323,21.6518611 L226.851867,16.1015368 L228.623122,16.1015368 L226.536977,30.8568002 Z M225.100293,28.3357022 L225.848156,22.9417251 C225.434863,22.589944 224.608277,22.0231856 223.545524,22.0231856 C221.085447,22.0231856 220.160459,24.5833703 220.160459,27.1630985 C220.160459,28.7265701 220.691835,29.5864795 221.971075,29.6451097 C222.364687,29.6451097 222.7583,29.5864795 223.151912,29.4692192 C223.899775,29.2346984 224.608277,28.7852003 225.100293,28.3357022 Z M233.168488,31.091321 C230.314799,31.091321 229.094601,29.4692192 229.094601,27.0067514 C229.094601,26.5767967 229.114282,26.146842 229.173324,25.7364307 C229.586617,22.7072044 231.436594,20.6160611 234.664215,20.6160611 C237.576946,20.6160611 238.620018,22.4140535 238.620018,24.7006307 C238.620018,25.1305854 238.600338,25.5214533 238.541296,25.9709514 C238.147684,29.1369814 236.317387,31.091321 233.168488,31.091321 Z M233.325933,29.7428267 C235.13655,29.7428267 236.41579,28.4529626 236.730679,25.8341476 C236.770041,25.4432797 236.789721,25.0719552 236.789721,24.6810873 C236.789721,22.9026384 235.982816,22.042729 234.447728,22.042729 C232.617431,22.042729 231.27915,23.2739629 230.96426,25.8341476 C230.924899,26.1859288 230.905218,26.5572533 230.905218,26.9285778 C230.905218,28.7656569 231.712123,29.7428267 233.325933,29.7428267 Z M242.988259,20.8114951 L242.771772,22.1795327 C243.775483,21.3782535 245.054723,20.6160611 246.511089,20.6160611 C248.321705,20.6160611 249.600945,21.6714045 249.600945,24.4270232 C249.600945,29.117438 247.19991,31.091321 244.64143,31.091321 C243.381871,31.091321 242.37816,30.5831927 241.7287,30.0164342 L241.020198,35 L239.288304,35 L241.295726,20.8114951 L242.988259,20.8114951 Z M247.731287,24.563827 C247.731287,22.7658346 247.18023,22.0818158 245.999393,22.0818158 C244.838237,22.0818158 243.362191,22.9612685 242.69305,23.5475704 L241.984548,28.6093098 C242.358479,28.9415475 243.322829,29.6255663 244.424944,29.6255663 C246.963743,29.6255663 247.731287,27.0653815 247.731287,24.563827 Z M256.173414,29.215155 L256.409582,30.4659323 C255.858524,30.79817 254.854813,31.091321 253.949505,31.091321 C252.020805,31.091321 251.095816,30.1923248 251.391025,28.1988985 L252.256972,22.1209025 L250.682523,22.1209025 L250.859649,20.8114951 L252.434098,20.8114951 L252.847391,17.9190726 L254.658007,17.6650084 L254.225033,20.8114951 L257,20.8114951 L256.822874,22.1209025 L254.047908,22.1209025 L253.201642,28.0034645 C253.044197,29.0588079 253.16228,29.7232833 254.362798,29.7232833 C255.012258,29.7232833 255.72076,29.4692192 256.173414,29.215155 Z M145.147368,15 L157.852632,15 C159.016505,15 160,15.9814286 160,17.1428571 L160,28.9285714 C160,30.09 159.016505,31.0714286 157.852632,31.0714286 L152.105558,31.0714286 L148.633263,34.8832143 C148.563832,34.9589286 148.4672,35 148.368421,35 C148.325116,35 148.281453,34.9921429 148.239221,34.9760714 C148.101432,34.9228571 148.010526,34.7903571 148.010526,34.6428571 L148.010526,31.0714286 L145.147368,31.0714286 C143.983495,31.0714286 143,30.09 143,28.9285714 L143,17.1428571 C143,15.9814286 143.983495,15 145.147368,15 Z M148.815789,27.8888889 C149.309939,27.8888889 149.710526,27.4909198 149.710526,27 C149.710526,26.5090802 149.309939,26.1111111 148.815789,26.1111111 C148.32164,26.1111111 147.921053,26.5090802 147.921053,27 C147.921053,27.4909198 148.32164,27.8888889 148.815789,27.8888889 Z M151.5,27.8888889 C151.99415,27.8888889 152.394737,27.4909198 152.394737,27 C152.394737,26.5090802 151.99415,26.1111111 151.5,26.1111111 C151.00585,26.1111111 150.605263,26.5090802 150.605263,27 C150.605263,27.4909198 151.00585,27.8888889 151.5,27.8888889 Z M154.184211,27.8888889 C154.67836,27.8888889 155.078947,27.4909198 155.078947,27 C155.078947,26.5090802 154.67836,26.1111111 154.184211,26.1111111 C153.690061,26.1111111 153.289474,26.5090802 153.289474,27 C153.289474,27.4909198 153.690061,27.8888889 154.184211,27.8888889 Z" id="Combined-Shape"></path>
            </g>
        </g>
    </g>
</svg>