<?xml version="1.0" encoding="UTF-8"?>
<svg width="24px" height="16px" viewBox="0 0 24 16" version="1.1" xmlns="http://www.w3.org/2000/svg" xmlns:xlink="http://www.w3.org/1999/xlink">
    <!-- Generator: Sketch 52.3 (67297) - http://www.bohemiancoding.com/sketch -->
    <title>Shape</title>
    <desc>Created with Sketch.</desc>
    <g id="Page-1" stroke="none" stroke-width="1" fill="none" fill-rule="evenodd">
        <g id="Desktop-HD" transform="translate(-1032.000000, -946.000000)" fill="#999999" fill-rule="nonzero">
            <g id="Group-22" transform="translate(1008.000000, 419.000000)">
                <g id="black-keyboard-with-white-keys" transform="translate(24.000000, 527.000000)">
                    <path d="M21.6,0.0223463687 L2.4,0.0223463687 C1.08,0.0223463687 0,1.04804469 0,2.30167598 L0,13.698324 C0,14.9519553 1.08,15.9776536 2.4,15.9776536 L21.6,15.9776536 C22.92,15.9776536 24,14.9519553 24,13.698324 L24,2.30167598 C24,1.04804469 22.92,0.0223463687 21.6,0.0223463687 Z M10.8,3.44134078 L13.2,3.44134078 L13.2,5.72067039 L10.8,5.72067039 L10.8,3.44134078 Z M10.8,6.8603352 L13.2,6.8603352 L13.2,9.1396648 L10.8,9.1396648 L10.8,6.8603352 Z M7.2,3.44134078 L9.6,3.44134078 L9.6,5.72067039 L7.2,5.72067039 L7.2,3.44134078 Z M7.2,6.8603352 L9.6,6.8603352 L9.6,9.1396648 L7.2,9.1396648 L7.2,6.8603352 Z M6,9.1396648 L3.6,9.1396648 L3.6,6.8603352 L6,6.8603352 L6,9.1396648 Z M6,5.72067039 L3.6,5.72067039 L3.6,3.44134078 L6,3.44134078 L6,5.72067039 Z M16.8,13.698324 L7.2,13.698324 L7.2,11.4189944 L16.8,11.4189944 L16.8,13.698324 Z M16.8,9.1396648 L14.4,9.1396648 L14.4,6.8603352 L16.8,6.8603352 L16.8,9.1396648 Z M16.8,5.72067039 L14.4,5.72067039 L14.4,3.44134078 L16.8,3.44134078 L16.8,5.72067039 Z M20.4,9.1396648 L18,9.1396648 L18,6.8603352 L20.4,6.8603352 L20.4,9.1396648 Z M20.4,5.72067039 L18,5.72067039 L18,3.44134078 L20.4,3.44134078 L20.4,5.72067039 Z" id="Shape"></path>
                </g>
            </g>
        </g>
    </g>
</svg>